<?xml version="1.0"?><svg width="744.09448819" height="1052.3622047" xmlns="http://www.w3.org/2000/svg">

 <g>
  <title>Layer 1</title>
  <g id="layer1">
   <path fill="#ff007f" id="path1368" d="m267.132233,700.015869c-0.464752,-1.21106 -2.853271,-1.494263 -12.604797,-1.494263c-6.617249,0 -12.031372,-0.231445 -12.031372,-0.514282c0,-0.282898 3.242981,-4.67041 7.206619,-9.75c12.983597,-16.639221 26.793381,-36.068054 26.793381,-37.695313c0,-0.877441 2.25,-4.720642 5,-8.540405c5.388519,-7.48468 5.80658,-8.5 3.5,-8.5c-2.553528,0 -1.659393,-1.553528 1.860077,-3.231873c2.62735,-1.252869 5.571259,-5.100525 13.5,-17.644165c5.576935,-8.823059 10.139923,-16.285339 10.139923,-16.582886c0,-0.297607 -0.926605,-0.541077 -2.05899,-0.541077c-2.834015,0 -1.599304,-1.610291 1.788208,-2.332031c2.169403,-0.462219 4.279785,-2.900269 9.723175,-11.232605c6.796906,-10.404419 11.093506,-14.875122 14.976501,-15.583435c3.122101,-0.56958 2.34552,-2.325439 -1.178894,-2.665283c-3.48999,-0.336487 -3.972504,-1.064087 -2.008392,-3.028259c0.988892,-0.988892 0.938995,-1.428711 -0.245087,-2.160522c-1.268524,-0.783936 -1.193817,-1.140259 0.508392,-2.426575c1.406891,-1.063171 1.571899,-1.517029 0.559479,-1.53949c-0.78949,-0.017456 -2.42218,0.895142 -3.628082,2.028076l-2.192688,2.059875l2.302094,-12.809875c4.950378,-27.546509 5.475494,-29.377563 9.757385,-34.022827c2.701019,-2.930298 3.501312,-4.393555 2.562317,-4.685028c-0.751007,-0.233093 -5.865417,-1.420105 -11.365417,-2.637787c-5.5,-1.217712 -14.049988,-3.667358 -19,-5.443726c-4.949982,-1.776337 -11.024994,-3.951355 -13.5,-4.833313c-2.574677,-0.91748 -17.121552,-2.88678 -34,-4.602783c-35.084259,-3.566925 -46.69548,-5.980743 -94.40152,-19.624939l-32.901505,-9.410034l-36.227882,28.975281c-40.882526,32.69812 -36.531757,30.431091 -52.161236,27.179565l-8.192131,-1.704285l20.43663,-36.455475c11.240147,-20.050537 20.101597,-36.766876 19.692127,-37.1474c-0.40947,-0.380554 -6.39032,-2.99939 -13.290749,-5.819702l-12.546249,-5.127777l0.392181,-3.359344l0.392189,-3.359344l13.408508,-0.71814c7.37468,-0.394989 13.648285,-1.10611 13.94133,-1.580261c0.293045,-0.474152 -6.271645,-22.290253 -14.588211,-48.480225c-8.316566,-26.189972 -14.929626,-47.809509 -14.695686,-48.043427c0.233929,-0.233948 4.65913,0.020569 9.833759,0.565552c5.174633,0.545013 10.345882,0.998718 11.491642,1.00824c1.596405,0.013275 7.064941,7.202972 23.401772,30.767334c11.725189,16.912506 22.381317,32.19043 23.680275,33.950958c1.298965,1.760559 10.045479,8.664673 19.436684,15.342529l17.074936,12.14151l25.661575,0.92215c28.61348,1.028229 44.365402,2.337433 89.683075,7.453857c29.466583,3.326813 69.716278,7.327789 70.20639,6.97876c0.125397,-0.089264 0.654907,-7.698853 1.176697,-16.910217c0.553711,-9.774078 1.429016,-17.326599 2.102112,-18.137604c1.116882,-1.345795 4.553986,-2.66156 10.243286,-3.921204c3.435822,-0.760712 3.611816,-2.57074 0.25,-2.57074c-2.492889,0 -2.5,-0.0271 -2.5,-9.593628c0,-8.582886 -0.200104,-9.645935 -1.8992,-10.090271c-1.481689,-0.387482 -2.481903,-2.839996 -4.549591,-11.156372c-4.803497,-19.319214 -4.1716,-17.865936 -8.088013,-18.600677c-3.916901,-0.734802 -3.771301,-2.559052 0.204224,-2.559052c2.133484,0 2.463287,-0.367096 2.02179,-2.25c-0.290192,-1.237518 -3.14679,-13.691956 -6.347992,-27.676575l-5.820404,-25.426605l-3.750214,-1.573395c-4.530579,-1.900818 -4.824585,-3.073425 -0.770599,-3.073425c1.649994,0 3,-0.281433 3,-0.625397c0,-0.343964 -1.867706,-8.513031 -4.150391,-18.153473c-3.802399,-16.058884 -4.011993,-17.629242 -2.5,-18.734863c1.845398,-1.34935 2.186493,-4.036942 0.634094,-4.996353c-0.55899,-0.345459 -0.783203,-1.005295 -0.498291,-1.466293c0.500305,-0.809601 -6.650391,-24.851837 -18.10495,-60.872101c-3.034271,-9.541656 -5.373657,-17.4758 -5.198669,-17.631439c0.674713,-0.599991 24.31012,8.455475 24.638123,9.439667c0.190704,0.572128 0.894592,1.040253 1.564178,1.040253c0.669525,0 2.176117,1.973373 3.3479,4.3853c2.6315,5.416412 40.218201,74.414337 83.954224,154.1147c18.108887,33 33.223602,60.787506 33.588196,61.75c0.869598,2.296021 6.965698,2.370544 8.843292,0.108124c1.185699,-1.428589 2.993103,-1.559326 13.91449,-1.006592c18.267914,0.924561 28.580322,2.457764 36.233124,5.386963c5.073975,1.942108 6.646484,2.986023 6.2901,4.175507c-0.261414,0.872284 -1.411316,7.210999 -2.55542,14.085999c-1.144104,6.875 -2.317383,13.287506 -2.607483,14.25c-0.90451,3.00177 -14.814697,2.263 -35.30011,-1.874756c-3.176514,-0.641602 -3.367493,-0.535095 -2.816711,1.571167c1.137726,4.350433 13.238007,24.329559 15.221619,25.13269c1.101501,0.445953 22.927704,3.106659 48.502716,5.912659c79.052673,8.673401 93.25708,10.981476 120.015869,19.501434c22.999878,7.32312 49.244873,21.609955 57.574951,31.341858c2.895508,3.38269 3.132996,4.092651 2.088196,6.240906c-2.538879,5.219971 -20.09137,11.716064 -40.679016,15.055237c-9.794617,1.588562 -60.076904,1.575562 -74,-0.019226c-5.775024,-0.661438 -29.175049,-3.474976 -52,-6.252319c-43.834625,-5.333801 -56.567932,-5.839111 -66.683624,-2.64624c-5.341492,1.685974 -5.737488,2.13739 -4.135712,4.713867c1.187317,1.909729 1.019226,2.357849 -1.680695,4.479187c-8.274506,6.501404 -38.103302,32.052246 -38.799683,33.235229c-0.655396,1.11322 1.38797,2.161316 11.142975,1.358276c9.966797,-0.820374 29.860931,2.152954 32.939117,3.036987c8.471771,2.433105 9.199799,1.819092 7.6633,13.485474c-0.722809,5.487671 -1.81781,12.278137 -2.433289,15.089905c-1.005554,4.466309 -4.566803,5.317261 -9.756012,5.651245c-8.456299,0.527588 -24.548187,-1.119385 -30.756409,-3.147827c-1.649994,-0.539124 -5.605408,-1.703491 -8.789795,-2.587463c-4.387604,-1.218018 -6.010101,-2.186951 -6.699799,-4.000854c-0.663208,-1.744385 -2.415405,-2.868103 -6.460205,-4.143127c-3.052582,-0.96228 -5.550201,-2.287292 -5.550201,-2.944519c0,-0.657166 -0.644592,-1.729858 -1.432495,-2.383728c-1.170288,-0.971313 -3.869293,0.984741 -14.75,10.689453c-18.158905,16.196472 -125.26886,106.002747 -129.462738,108.547974c-0.629852,0.382263 -1.403229,0.022583 -1.718597,-0.799255z"/>
  </g>
 </g>
</svg>